# xmcd
#
# Track frame offsets: 
#        150
#        16552
#        28444
#        44295
#        56755
#        75933
#        88938
#        100134
#        118135
#        132660
#        146979
#        160791
#
# Disc length: 2349 seconds
#
# Revision: 0
# Processed by: cddbd v1.5.2PL0 Copyright (c) Steve Scherf et al.
# Submitted via: ExactAudioCopy v0.99pb5
#
DISCID=a2092b0c
DTITLE=Doyle Lawson and Quicksilver - Lonely Street
DYEAR=2009
DGENRE=Bluegrass
TTITLE0=Monroe's Mandolin
TTITLE1=Lonely Street
TTITLE2=Ain't a Woman Somebody When She's Gone
TTITLE3=Big Wind
TTITLE4=Oh Heart Look What You've Done
TTITLE5=The Human Race
TTITLE6=Call Me Up and I'll Come Callin' On You
TTITLE7=Yesterday's Songs
TTITLE8=Down Around Bear Cove
TTITLE9=Johnny and Sally
TTITLE10=My Real World of Make Believe
TTITLE11=When the Last of Our Days Shall Come
EXTD=
EXTT0=
EXTT1=
EXTT2=
EXTT3=
EXTT4=
EXTT5=
EXTT6=
EXTT7=
EXTT8=
EXTT9=
EXTT10=
EXTT11=
PLAYORDER=
